<svg width="45" height="45" xmlns="http://www.w3.org/2000/svg" version="1.1">

 <g>
  <title>Layer 1</title>
  <g transform="rotate(180 22.5 22.1576)" id="svg_1" stroke-miterlimit="4" stroke-linejoin="round" stroke-linecap="round" stroke-width="1.5" stroke="#000000" fill-rule="evenodd" fill="none">
   <g id="svg_2" stroke="#000000" fill="#ffffff">
    <path id="svg_3" d="m9,36c3.39,-0.97 10.11,0.43 13.5,-2c3.39,2.43 10.11,1.03 13.5,2c0,0 1.65,0.54 3,2c-0.68,0.97 -1.65,0.99 -3,0.5c-3.39,-0.97 -10.11,0.46 -13.5,-1c-3.39,1.46 -10.11,0.03 -13.5,1c-1.35,0.49 -2.32,0.47 -3,-0.5c1.35,-1.46 3,-2 3,-2z"/>
    <path id="svg_4" d="m15,32c2.5,2.5 12.5,2.5 15,0c0.5,-1.5 0,-2 0,-2c0,-2.5 -2.5,-4 -2.5,-4c5.5,-1.5 6,-11.5 -5,-15.5c-11,4 -10.5,14 -5,15.5c0,0 -2.5,1.5 -2.5,4c0,0 -0.5,0.5 0,2z"/>
    <path id="svg_5" d="m25,8a2.5,2.5 0 1 1 -5,0a2.5,2.5 0 1 1 5,0z"/>
   </g>
   <path id="svg_6" stroke="#000000" fill="none" d="m17.5,26l10,0m-12.5,4l15,0m-7.5,-14.5l0,5m-2.5,-2.5l5,0"/>
  </g>
 </g>
</svg>