<svg width="45" height="45" xmlns="http://www.w3.org/2000/svg" version="1.1">

 <g>
  <title>Layer 1</title>
  <g transform="rotate(180 22.5 24)" id="svg_1" stroke-miterlimit="4" stroke-linejoin="round" stroke-linecap="round" stroke-width="1.5" stroke="#000000" fill-rule="evenodd" fill="#ffffff">
   <path id="svg_2" d="m9,39l27,0l0,-3l-27,0l0,3z"/>
   <path id="svg_3" d="m12,36l0,-4l21,0l0,4l-21,0z"/>
   <path id="svg_4" d="m11,14l0,-5l4,0l0,2l5,0l0,-2l5,0l0,2l5,0l0,-2l4,0l0,5"/>
   <path id="svg_5" d="m34,14l-3,3l-17,0l-3,-3"/>
   <path id="svg_6" d="m31,17l0,12.5l-17,0l0,-12.5"/>
   <path id="svg_7" d="m31,29.5l1.5,2.5l-20,0l1.5,-2.5"/>
   <path id="svg_8" stroke="#000000" fill="none" d="m11,14l23,0"/>
  </g>
 </g>
</svg>