<svg width="45" height="45" xmlns="http://www.w3.org/2000/svg" version="1.0">
 <metadata>image/svg+xml</metadata>

 <g>
  <title>Layer 1</title>
  <path stroke="#000" id="svg_1" fill="#84D3DB" stroke-miterlimit="4" stroke-linecap="square" stroke-dashoffset="0" d="m27.52542,26.63559a6.71186,7.05085 0 1 1 -13.42373,0a6.71186,7.05085 0 1 1 13.42373,0z" stroke-linejoin="round"/>
  <path stroke="#000" id="svg_2" fill="#84D3DB" stroke-miterlimit="4" stroke-dashoffset="0" d="m7.74576,27.88544l0,-12.83868l22.4671,-2.13978c9.62089,-0.9163 9.62089,18.03449 0,17.11824l-22.4671,-2.13978z" stroke-linejoin="round"/>
  <path stroke="#000" id="svg_3" fill="#84D3DB" stroke-miterlimit="4" stroke-linecap="square" stroke-dashoffset="0" d="m8.90678,21.4661a1.5,6.55932 0 1 1 -3,0a1.5,6.55932 0 1 1 3,0z" stroke-linejoin="round"/>
  <path stroke="#000" id="svg_4" fill="#84D3DB" stroke-miterlimit="4" stroke-linecap="square" stroke-dashoffset="0" d="m33.25424,28.33051a7.05085,7.04994 0 1 1 -14.1017,0a7.05085,7.04994 0 1 1 14.1017,0z" stroke-linejoin="round"/>
  <path stroke="#000" id="svg_5" fill="none" stroke-miterlimit="4" stroke-dashoffset="0" d="m36.94915,18.92373c10.90517,3.64649 -1.81753,7.29298 1.81753,12.76271"/>
 </g>
</svg>