<svg width="45" height="45" xmlns="http://www.w3.org/2000/svg" xmlns:undefined="http://sodipodi.sourceforge.net/DTD/sodipodi-0.dtd" xmlns:undefined="http://www.inkscape.org/namespaces/inkscape" version="1.0">

 <metadata id="metadata3133">image/svg+xml</metadata>
 <g>
  <title>Layer 1</title>
  <g transform="rotate(180 22.5 24)" display=" inline" id="layer1"  >
   <path stroke-miterlimit="4" stroke-linejoin="round" stroke-width="1.5" stroke="black" fill-rule="evenodd" fill="#00c800"  id="path3119" d="m9,39l27,0l0,-3l-27,0l0,3z"/>
   <path stroke-miterlimit="4" stroke-linejoin="round" stroke-width="1.5" stroke="black" fill-rule="evenodd" fill="#00c800"  id="path3121" d="m12,36l0,-4l21,0l0,4l-21,0z"/>
   <path stroke-miterlimit="4" stroke-linejoin="round" stroke-width="1.5" stroke="black" fill-rule="evenodd" fill="#00c800"  id="path3129" d="m11,14l0,-5l4,0l0,2l5,0l0,-2l5,0l0,2l5,0l0,-2l4,0l0,5"/>
   <path stroke-miterlimit="4" stroke-linejoin="round" stroke-linecap="round" stroke-width="1.5" stroke="black" fill-rule="evenodd" fill="#00c800"  id="path3127" d="m34,14l-3,3l-17,0l-3,-3"/>
   <path stroke-miterlimit="4" stroke-width="1.5" stroke="black" fill-rule="evenodd" fill="#00c800"  id="path3125" d="m31,17l0,12.50002l-17,0l0,-12.50002"/>
   <path stroke-miterlimit="4" stroke-linejoin="round" stroke-linecap="round" stroke-width="1.5" stroke="black" fill-rule="evenodd" fill="#00c800"  id="path3123" d="m31,29.5l1.5,2.5l-20,0l1.5,-2.5"/>
   <path stroke-linecap="round" stroke-width="1px" stroke="black" fill-rule="evenodd" fill="#00c800" id="path5175" d="m11,14l23,0"/>
  </g>
 </g>
</svg>